<mxfile host="app.diagrams.net" agent="Mozilla/5.0 (Windows NT 10.0; Win64; x64; rv:133.0) Gecko/20100101 Firefox/133.0" version="26.0.4">
  <diagram name="Page-1" id="iVtya6uGyvRTXHMwtFO6">
    <mxGraphModel dx="1185" dy="648" grid="1" gridSize="10" guides="1" tooltips="1" connect="1" arrows="1" fold="1" page="1" pageScale="1" pageWidth="827" pageHeight="1169" math="0" shadow="0">
      <root>
        <mxCell id="0" />
        <mxCell id="1" parent="0" />
        <mxCell id="9pk9NbQXzydSW51D6Tqu-1" value=":utilisateur" style="rounded=0;whiteSpace=wrap;html=1;" vertex="1" parent="1">
          <mxGeometry x="80" y="80" width="170" height="40" as="geometry" />
        </mxCell>
        <mxCell id="9pk9NbQXzydSW51D6Tqu-5" value=":session" style="rounded=0;whiteSpace=wrap;html=1;" vertex="1" parent="1">
          <mxGeometry x="80" y="447" width="160" height="40" as="geometry" />
        </mxCell>
        <mxCell id="9pk9NbQXzydSW51D6Tqu-6" value="" style="endArrow=classic;html=1;rounded=0;exitX=0.116;exitY=1;exitDx=0;exitDy=0;exitPerimeter=0;" edge="1" parent="1" source="9pk9NbQXzydSW51D6Tqu-1">
          <mxGeometry width="50" height="50" relative="1" as="geometry">
            <mxPoint x="101.7600000000001" y="127.75999999999999" as="sourcePoint" />
            <mxPoint x="100" y="447" as="targetPoint" />
          </mxGeometry>
        </mxCell>
        <mxCell id="9pk9NbQXzydSW51D6Tqu-7" value="(1)authentifier()" style="text;html=1;align=center;verticalAlign=middle;whiteSpace=wrap;rounded=0;rotation=90;" vertex="1" parent="1">
          <mxGeometry x="90" y="247" width="60" height="30" as="geometry" />
        </mxCell>
        <mxCell id="9pk9NbQXzydSW51D6Tqu-8" value="" style="endArrow=classic;html=1;rounded=0;exitX=0.347;exitY=-0.035;exitDx=0;exitDy=0;exitPerimeter=0;" edge="1" parent="1" source="9pk9NbQXzydSW51D6Tqu-5">
          <mxGeometry width="50" height="50" relative="1" as="geometry">
            <mxPoint x="137" y="440" as="sourcePoint" />
            <mxPoint x="130" y="120" as="targetPoint" />
            <Array as="points">
              <mxPoint x="130" y="120" />
            </Array>
          </mxGeometry>
        </mxCell>
        <mxCell id="9pk9NbQXzydSW51D6Tqu-9" value="(2)verifierIdentifiants()" style="text;html=1;align=center;verticalAlign=middle;whiteSpace=wrap;rounded=0;rotation=90;" vertex="1" parent="1">
          <mxGeometry x="120" y="260" width="60" height="30" as="geometry" />
        </mxCell>
        <mxCell id="9pk9NbQXzydSW51D6Tqu-11" value="" style="endArrow=classic;html=1;rounded=0;exitX=0.627;exitY=-0.053;exitDx=0;exitDy=0;entryX=0.594;entryY=1.019;entryDx=0;entryDy=0;exitPerimeter=0;entryPerimeter=0;" edge="1" parent="1" source="9pk9NbQXzydSW51D6Tqu-5" target="9pk9NbQXzydSW51D6Tqu-1">
          <mxGeometry width="50" height="50" relative="1" as="geometry">
            <mxPoint x="179.9999999999999" y="451.1199999999999" as="sourcePoint" />
            <mxPoint x="173.64" y="119.99999999999989" as="targetPoint" />
          </mxGeometry>
        </mxCell>
        <mxCell id="9pk9NbQXzydSW51D6Tqu-12" value="(3)creer sessions()" style="text;whiteSpace=wrap;html=1;rotation=90;" vertex="1" parent="1">
          <mxGeometry x="110" y="277" width="160" height="40" as="geometry" />
        </mxCell>
      </root>
    </mxGraphModel>
  </diagram>
</mxfile>
